#!OML:ASF H:\LiuWeirdWalks\Patient Classification 1\Patient 1\Session 1\male.ASF
:FULLY-SPECIFIED
:DEGREES
194
root 0.625802 17.7353 -16.0296 7.59033 -2.36785 7.92235
lowerback 10.0888 -0.67878 -9.7884
upperback -0.766 -2.08554 0.193553
thorax -6.15031 -0.694418 6.04016
lowerneck -16.9706 2.58663 6.0717
upperneck 18.2661 3.47774 -7.02543
head 8.73639 1.31856 -2.96077
rclavicle 1.17283e-014 2.5842e-014
rhumerus -41.5221 -9.93004 -73.2173
rradius 21.6351
rwrist -2.21991
rhand -18.0021 -6.42627
rfingers 7.12502
rthumb 8.26832 -36.2445
lclavicle 1.17283e-014 2.5842e-014
lhumerus -24.8407 5.173 84.9185
lradius 26.3396
lwrist 10.2961
lhand -16.8651 -0.916173
lfingers 7.12502
lthumb 9.36547 28.8558
rfemur -40.1178 -11.8904 11.0641
rtibia 70.3198
rfoot -9.01894 -13.888
rtoes 9.34459
lfemur -7.41629 2.31985 -32.0633
ltibia 22.9454
lfoot -15.8197 11.7743
ltoes -8.46735
195
root 0.618842 17.7191 -15.7921 7.50216 -2.09272 8.16618
lowerback 10.2154 -0.808488 -10.227
upperback -0.780434 -2.32891 0.168207
thorax -6.18216 -0.797003 6.29999
lowerneck -16.9398 2.5469 6.04814
upperneck 18.2798 3.3999 -6.88338
head 8.72667 1.29566 -2.91815
rclavicle 3.17062e-014 2.22639e-014
rhumerus -42.8149 -11.3053 -71.4535
rradius 20.8325
rwrist -1.07431
rhand -17.7952 -6.57351
rfingers 7.12502
rthumb 8.468 -36.3837
lclavicle 3.17062e-014 2.22639e-014
lhumerus -23.3692 4.03002 85.1705
lradius 27.3475
lwrist 11.2763
lhand -16.9621 -1.13768
lfingers 7.12502
lthumb 9.27193 28.6384
rfemur -41.5228 -11.7986 11.3403
rtibia 68.138
rfoot -9.65625 -13.9628
rtoes 8.34343
lfemur -6.03635 2.14566 -32.3202
ltibia 22.1668
lfoot -15.6393 12.0172
ltoes -9.29735
196
root 0.611525 17.7052 -15.5521 7.44521 -1.79769 8.35706
lowerback 10.3122 -0.936404 -10.6033
upperback -0.80084 -2.55937 0.155088
thorax -6.20427 -0.895275 6.53495
lowerneck -16.8495 2.49544 6.04921
upperneck 18.2683 3.30842 -6.77441
head 8.69781 1.2658 -2.89253
rclavicle 1.60022e-014 9.93923e-015
rhumerus -44.1645 -12.6472 -69.5745
rradius 20.056
rwrist 0.161715
rhand -17.597 -6.69642
rfingers 7.12502
rthumb 8.65924 -36.4988
lclavicle 1.60022e-014 9.93923e-015
lhumerus -21.9055 2.99278 85.3284
lradius 28.3664
lwrist 12.1931
lhand -17.0313 -1.34118
lfingers 7.12502
lthumb 9.20515 28.4379
rfemur -42.7514 -11.6714 11.6456
rtibia 65.5929
rfoot -10.1361 -14.1246
rtoes 7.28403
lfemur -4.60044 1.96874 -32.5207
ltibia 21.2512
lfoot -15.3707 12.2639
ltoes -10.1585
197
root 0.603744 17.6929 -15.3102 7.42798 -1.47965 8.48054
lowerback 10.3699 -1.06764 -10.9003
upperback -0.823572 -2.77937 0.1579
thorax -6.20819 -0.991725 6.73917
lowerneck -16.7713 2.41112 5.99246
upperneck 18.2992 3.18095 -6.63238
head 8.68162 1.21794 -2.85099
rclavicle -1.88845e-015 -1.23246e-014
rhumerus -45.5467 -14.002 -67.5536
rradius 19.263
rwrist 1.56182
rhand -17.4202 -6.74311
rfingers 7.12502
rthumb 8.82986 -36.5384
lclavicle -1.88845e-015 -1.23246e-014
lhumerus -20.4385 2.05788 85.4059
lradius 29.3978
lwrist 13.0448
lhand -17.0604 -1.51619
lfingers 7.12502
lthumb 9.17704 28.2641
rfemur -43.8123 -11.5206 11.9941
rtibia 62.7168
rfoot -10.4394 -14.3594
rtoes 6.217
lfemur -3.12672 1.78649 -32.6459
ltibia 20.2071
lfoot -15.027 12.5073
ltoes -11.0372
198
root 0.595472 17.6817 -15.0658 7.43747 -1.1564 8.55181
lowerback 10.3746 -1.19654 -11.1322
upperback -0.839982 -2.98103 0.163691
thorax -6.17914 -1.08369 6.90436
lowerneck -16.6396 2.3135 5.97739
upperneck 18.2651 3.03188 -6.52698
head 8.63372 1.16013 -2.8308
rclavicle 3.93594e-014 -5.96354e-015
rhumerus -46.9659 -15.3344 -65.4346
rradius 18.4886
rwrist 3.0383
rhand -17.2741 -6.83847
rfingers 7.12502
rthumb 8.97086 -36.6277
lclavicle 3.93594e-014 -5.96354e-015
lhumerus -18.9751 1.2067 85.4009
lradius 30.4517
lwrist 13.7919
lhand -17.0617 -1.60275
lfingers 7.12502
lthumb 9.17579 28.1776
rfemur -44.6918 -11.3393 12.3555
rtibia 59.5478
rfoot -10.5629 -14.6304
rtoes 5.12728
lfemur -1.60409 1.61357 -32.7127
ltibia 19.0315
lfoot -14.6057 12.7496
ltoes -11.8954
199
root 0.586846 17.671 -14.8186 7.47364 -0.793348 8.59634
lowerback 10.3315 -1.33557 -11.3231
upperback -0.849878 -3.18383 0.176906
thorax -6.11534 -1.18012 7.05134
lowerneck -16.5042 2.19498 5.92927
upperneck 18.2541 2.86022 -6.40461
head 8.59093 1.09097 -2.80227
rclavicle -2.69353e-014 9.54166e-015
rhumerus -48.4217 -16.7237 -63.1213
rradius 17.6844
rwrist 4.74636
rhand -17.1388 -6.87119
rfingers 7.12502
rthumb 9.10143 -36.6548
lclavicle -2.69353e-014 9.54166e-015
lhumerus -17.5239 0.444817 85.3365
lradius 31.5225
lwrist 14.392
lhand -17.0215 -1.6891
lfingers 7.12502
lthumb 9.21464 28.0896
rfemur -45.3865 -11.1721 12.6957
rtibia 56.1337
rfoot -10.5164 -14.8971
rtoes 3.92359
lfemur -0.0330074 1.44524 -32.7379
ltibia 17.7243
lfoot -14.0989 12.9484
ltoes -12.755
200
root 0.578134 17.6611 -14.5684 7.53399 -0.411514 8.62503
lowerback 10.2392 -1.47897 -11.4824
upperback -0.854203 -3.38119 0.193184
thorax -6.0186 -1.27754 7.17928
lowerneck -16.3411 2.07007 5.87957
upperneck 18.1925 2.67964 -6.28294
head 8.52576 1.01786 -2.77394
rclavicle -4.50247e-014 -4.13472e-014
rhumerus -49.9399 -18.1927 -60.5683
rradius 16.8577
rwrist 6.74298
rhand -17.006 -6.85137
rfingers 7.12502
rthumb 9.22952 -36.6294
lclavicle -4.50247e-014 -4.13472e-014
lhumerus -16.0861 -0.239247 85.2273
lradius 32.6103
lwrist 14.8585
lhand -16.9701 -1.70286
lfingers 7.12502
lthumb 9.26424 28.0736
rfemur -45.9052 -11.0139 12.9947
rtibia 52.5288
rfoot -10.3021 -15.1074
rtoes 2.66673
lfemur 1.59236 1.29665 -32.7314
ltibia 16.2724
lfoot -13.5005 13.0801
ltoes -13.584
201
root 0.568665 17.6521 -14.3149 7.61721 -0.000320136 8.63026
lowerback 10.1003 -1.63312 -11.6089
upperback -0.85863 -3.58187 0.216056
thorax -5.89486 -1.37968 7.29251
lowerneck -16.2365 1.96775 5.84305
upperneck 18.1699 2.52614 -6.16305
head 8.48681 0.95704 -2.74542
rclavicle 3.37934e-015 -7.15625e-015
rhumerus -51.5514 -19.6863 -57.7886
rradius 16.0377
rwrist 8.97466
rhand -16.8891 -6.79321
rfingers 7.12502
rthumb 9.34234 -36.5662
lclavicle 3.37934e-015 -7.15625e-015
lhumerus -14.6835 -0.87434 85.0766
lradius 33.7002
lwrist 15.2222
lhand -16.953 -1.72365
lfingers 7.12502
lthumb 9.2807 28.0521
rfemur -46.2535 -10.855 13.2506
rtibia 48.8026
rfoot -9.96432 -15.2862
rtoes 1.15997
lfemur 3.27146 1.15979 -32.673
ltibia 14.672
lfoot -12.7901 13.108
ltoes -14.406
202
root 0.558123 17.6436 -14.0582 7.72009 0.444111 8.6307
lowerback 9.92524 -1.79343 -11.7265
upperback -0.863045 -3.78396 0.245965
thorax -5.74918 -1.48452 7.40481
lowerneck -16.1672 1.87719 5.80151
upperneck 18.1425 2.38704 -6.03716
head 8.45367 0.90265 -2.71208
rclavicle 2.16675e-014 7.55382e-015
rhumerus -53.2714 -21.2165 -54.7408
rradius 15.2288
rwrist 11.4513
rhand -16.7925 -6.75788
rfingers 7.12502
rthumb 9.43553 -36.5267
lclavicle 2.16675e-014 7.55382e-015
lhumerus -13.3191 -1.49694 84.9066
lradius 34.7993
lwrist 15.5777
lhand -16.9787 -1.6975
lfingers 7.12502
lthumb 9.25589 28.0793
rfemur -46.4475 -10.6901 13.4331
rtibia 45.0422
rfoot -9.55781 -15.4258
rtoes -0.536871
lfemur 5.01275 1.04263 -32.5692
ltibia 12.915
lfoot -11.9782 12.9738
ltoes -15.2327
203
root 0.546382 17.635 -13.7981 7.83627 0.916895 8.61677
lowerback 9.72043 -1.96149 -11.825
upperback -0.86821 -3.98913 0.285905
thorax -5.58618 -1.59287 7.51401
lowerneck -16.1869 1.81226 5.75693
upperneck 18.1366 2.27911 -5.90439
head 8.44608 0.86205 -2.67238
rclavicle 5.82439e-014 -3.97569e-016
rhumerus -55.1195 -22.7617 -51.4097
rradius 14.4425
rwrist 14.1593
rhand -16.7136 -6.73768
rfingers 7.12502
rthumb 9.51172 -36.503
lclavicle 5.82439e-014 -3.97569e-016
lhumerus -12.0051 -2.09935 84.7166
lradius 35.895
lwrist 15.9339
lhand -17.0545 -1.76055
lfingers 7.12502
lthumb 9.18279 28.0195
rfemur -46.5036 -10.4933 13.5371
rtibia 41.3536
rfoot -9.21062 -15.5582
rtoes -2.49417
lfemur 6.82988 0.93836 -32.4029
ltibia 10.9857
lfoot -11.046 12.6494
ltoes -16.1059
204
root 0.533101 17.626 -13.5343 7.95236 1.42406 8.58239
lowerback 9.49179 -2.13668 -11.9003
upperback -0.874341 -4.19698 0.336904
thorax -5.40976 -1.70436 7.619
lowerneck -16.1684 1.75211 5.72141
upperneck 18.0701 2.18016 -5.79448
head 8.41233 0.824576 -2.64005
rclavicle 1.74931e-014 7.15625e-015
rhumerus -57.1275 -24.3321 -47.7467
rradius 13.6828
rwrist 17.1349
rhand -16.6637 -6.84631
rfingers 7.12502
rthumb 9.55986 -36.6094
lclavicle 1.74931e-014 7.15625e-015
lhumerus -10.7709 -2.70082 84.5141
lradius 37.0105
lwrist 16.3895
lhand -17.2384 -1.95131
lfingers 7.12502
lthumb 9.00534 27.8365
rfemur -46.4321 -10.2309 13.5479
rtibia 37.8585
rfoot -9.00814 -15.7133
rtoes -4.4399
lfemur 8.77101 0.58209 -32.1992
ltibia 8.81637
lfoot -9.87755 12.3396
ltoes -17.0577
205
root 0.51886 17.6164 -13.2671 8.06248 1.97506 8.55247
lowerback 9.26462 -2.31883 -11.9646
upperback -0.883159 -4.41288 0.390307
thorax -5.23502 -1.82022 7.71939
lowerneck -16.1591 1.67708 5.6421
upperneck 18.0407 2.0678 -5.66079
head 8.39137 0.779976 -2.59447
rclavicle 4.46769e-014 2.0276e-014
rhumerus -59.3375 -25.9308 -43.6908
rradius 12.956
rwrist 20.395
rhand -16.6181 -7.03677
rfingers 7.12502
rthumb 9.6038 -36.7979
lclavicle 4.46769e-014 2.0276e-014
lhumerus -9.60778 -3.30235 84.3029
lradius 38.1376
lwrist 16.9415
lhand -17.5019 -2.26856
lfingers 7.12502
lthumb 8.75098 27.53
rfemur -46.2603 -9.90503 13.4269
rtibia 34.6837
rfoot -9.04968 -15.9126
rtoes -6.31189
lfemur 10.9211 0.177592 -31.9701
ltibia 6.25143
lfoot -8.46443 11.7968
ltoes -18.1421
206
root 0.504043 17.6056 -12.9949 8.13119 2.54221 8.52409
lowerback 9.03259 -2.49837 -12.0105
upperback -0.876991 -4.62163 0.438977
thorax -5.04378 -1.93527 7.80057
lowerneck -16.1614 1.6031 5.55869
upperneck 18.0339 1.96047 -5.53756
head 8.38071 0.736214 -2.55147
rclavicle -4.30369e-014 1.23246e-014
rhumerus -61.7603 -27.515 -39.2696
rradius 12.2891
rwrist 23.9032
rhand -16.5778 -7.36967
rfingers 7.12502
rthumb 9.64271 -37.129
lclavicle -4.30369e-014 1.23246e-014
lhumerus -8.51404 -3.91671 84.077
lradius 39.2716
lwrist 17.5654
lhand -17.8463 -2.66896
lfingers 7.12502
lthumb 8.41867 27.1432
rfemur -45.979 -9.47906 13.168
rtibia 31.9458
rfoot -9.43503 -16.1398
rtoes -8.17404
lfemur 13.7641 -0.242362 -31.7255
ltibia 2.41663
lfoot -6.38173 10.8664
ltoes -19.3651
207
root 0.488441 17.5941 -12.7182 8.15038 3.13977 8.48318
lowerback 8.83409 -2.67902 -12.03
upperback -0.865831 -4.83297 0.491995
thorax -4.86657 -2.05176 7.87216
lowerneck -16.1953 1.52591 5.45389
upperneck 18.0903 1.85716 -5.42562
head 8.39739 0.691282 -2.50915
rclavicle 9.06458e-014 -1.74931e-014
rhumerus -64.4347 -29.0543 -34.4205
rradius 11.6812
rwrist 27.7325
rhand -16.5035 -7.74304
rfingers 7.12502
rthumb 9.7144 -37.499
lclavicle 9.06458e-014 -1.74931e-014
lhumerus -7.50304 -4.49394 83.8452
lradius 40.3933
lwrist 18.1417
lhand -18.2311 -3.2019
lfingers 7.12502
lthumb 8.04728 26.6249
rfemur -45.5985 -8.94968 12.7965
rtibia 29.7379
rfoot -10.082 -16.4346
rtoes -9.90573
lfemur 15.9353 -0.690304 -31.4324
ltibia 6.04305e-014
lfoot -4.85831 10.0023
ltoes -20.7263
208
root 0.47281 17.5817 -12.4365 8.10648 3.73879 8.40929
lowerback 8.67916 -2.85013 -11.998
upperback -0.850734 -5.03161 0.552664
thorax -4.71547 -2.16179 7.9236
lowerneck -16.2118 1.45342 5.35252
upperneck 18.1743 1.76951 -5.35272
head 8.42175 0.650207 -2.47916
rclavicle 2.44505e-014 -1.39149e-014
rhumerus -67.2649 -30.3857 -29.3906
rradius 11.1765
rwrist 31.6209
rhand -16.4167 -8.20337
rfingers 7.12502
rthumb 9.7981 -37.9554
lclavicle 2.44505e-014 -1.39149e-014
lhumerus -6.59065 -5.02806 83.6193
lradius 41.5136
lwrist 18.6369
lhand -18.6081 -3.70778
lfingers 7.12502
lthumb 7.68341 26.1326
rfemur -45.1322 -8.37353 12.4063
rtibia 28.1159
rfoot -10.8896 -16.6955
rtoes -11.3937
lfemur 16.9376 -1.13288 -31.0623
ltibia 6.36111e-014
lfoot -4.33655 9.40022
ltoes -22.2182
